<svg xmlns="http://www.w3.org/2000/svg" version="1.1" xmlns:xlink="http://www.w3.org/1999/xlink" xmlns:svgjs="http://svgjs.dev/svgjs" viewBox="0 0 800 800"><g fill="hsl(341, 100%, 85%)"><path d="M544 397H594C622 397 644 419 644 447H594C566 447 544 425 544 397Z " transform="matrix(-0.36188823219164595,0.04443428768557966,-0.04443428768557966,-0.36188823219164595,827.7128793251524,548.3228670996403)" opacity="0.56"></path><path d="M313 535H363C391 535 413 557 413 585H363C335 585 313 563 313 535Z " transform="matrix(-0.21698336131013649,0.21698336131013654,-0.21698336131013654,-0.21698336131013649,563.2756424892559,602.7457221780969)" opacity="0.47"></path><path d="M91 550H141C169 550 191 572 191 600H141C113 600 91 578 91 550Z " transform="matrix(-0.3786484027484568,-0.15298388508096938,0.15298388508096938,-0.3786484027484568,106.423690865975,814.2935593767794)" opacity="0.63"></path><path d="M571 216H621C649 216 671 238 671 266H621C593 266 571 244 571 216Z " transform="matrix(-0.36521227257658084,0.03195193363099069,-0.03195193363099069,-0.36521227257658084,855.4972372751256,309.1740069061108)" opacity="0.56"></path><path d="M699 613H749C777 613 799 635 799 663H749C721 663 699 641 699 613Z " transform="matrix(-0.3630804800451696,0.038161296195042355,-0.038161296195042355,-0.3630804800451696,1045.2941865262692,841.0625354187315)" opacity="0.56"></path><path d="M357 433H407C435 433 457 455 457 483H407C379 483 357 461 357 433Z " transform="matrix(-0.11169653504607902,0.25087452523117465,-0.25087452523117465,-0.11169653504607902,567.3610223196322,407.0510812820161)" opacity="0.42"></path><path d="M617 724H667C695 724 717 746 717 774H667C639 774 617 752 617 724Z " transform="matrix(-0.36310168065781906,0.03816352446922204,-0.03816352446922204,-0.36310168065781906,937.7733008262126,995.5080879917355)" opacity="0.56"></path><path d="M189 293H239C267 293 289 315 289 343H239C211 343 189 321 189 293Z " transform="matrix(-0.27426520956381745,-0.3639622261023005,0.3639622261023005,-0.27426520956381745,188.8093971852208,492.20330867974377)" opacity="0.70"></path><path d="M215 202H265C293 202 315 224 315 252H265C237 252 215 230 215 202Z " transform="matrix(-0.3220209342875365,-0.3002893792752723,0.3002893792752723,-0.3220209342875365,282.16985849071034,379.675437591218)" opacity="0.68"></path><path d="M194 522H244C272 522 294 544 294 572H244C216 572 194 550 194 522Z " transform="matrix(-0.27426520956381745,-0.3639622261023005,0.3639622261023005,-0.27426520956381745,111.83337345561307,785.8298528003694)" opacity="0.70"></path><path d="M244 22H294C322 22 344 44 344 72H294C266 72 244 50 244 22Z " transform="matrix(-0.2070290163671386,-0.42447238757592687,0.42447238757592687,-0.2070290163671386,334.9163285958702,181.525245716578)" opacity="0.73"></path><path d="M520 723H570C598 723 620 745 620 773H570C542 773 520 751 520 723Z " transform="matrix(-0.3560777927147091,0.056397181911115486,-0.056397181911115486,-0.3560777927147091,815.1494339168987,982.1997952612666)" opacity="0.55"></path><path d="M585 21H635C663 21 685 43 685 71H635C607 71 585 49 585 21Z " transform="matrix(-0.034811369811861524,0.24769576675403934,-0.24769576675403934,-0.034811369811861524,668.4992251012179,-109.68548887746934)" opacity="0.38"></path><path d="M177 110H227C255 110 277 132 277 160H227C199 160 177 138 177 110Z " transform="matrix(-0.3683849653031074,-0.19587376053394887,0.19587376053394887,-0.3683849653031074,284.1804294517223,229.19531395712588)" opacity="0.64"></path><path d="M376 626H426C454 626 476 648 476 676H426C398 676 376 654 376 626Z " transform="matrix(-0.1112476479965586,0.24986630841062246,-0.24986630841062246,-0.1112476479965586,636.0544648218493,616.9791714628345)" opacity="0.42"></path><path d="M527 511H577C605 511 627 533 627 561H577C549 561 527 539 527 511Z " transform="matrix(-0.3560777927147091,0.056397181911115486,-0.056397181911115486,-0.3560777927147091,812.685775900745,694.3165229323704)" opacity="0.55"></path><path d="M0 723H50C78 723 100 745 100 773H50C22 773 0 751 0 723Z " transform="matrix(-0.14175421231568447,0.24552549791767148,-0.24552549791767148,-0.14175421231568447,240.7407830582025,841.7558759162484)" opacity="0.43"></path><path d="M73 650H123C151 650 173 672 173 700H123C95 700 73 678 73 650Z " transform="matrix(-0.3806447637781587,-0.026617274813997064,0.026617274813997064,-0.3806447637781587,151.8526454452655,935.2091403523787)" opacity="0.59"></path><path d="M115 732H165C193 732 215 754 215 782H165C137 782 115 760 115 732Z " transform="matrix(-0.34491380071017913,-0.2599111914615033,0.2599111914615033,-0.34491380071017913,25.158005180821533,1060.9850937287538)" opacity="0.66"></path><path d="M89 330H139C167 330 189 352 189 380H139C111 380 89 358 89 330Z " transform="matrix(-0.3786484027484568,-0.15298388508096938,0.15298388508096938,-0.3786484027484568,137.32284877829136,510.6849430019569)" opacity="0.63"></path><path d="M101 215H151C179 215 201 237 201 265H151C123 265 101 243 101 215Z " transform="matrix(-0.34491380071017913,-0.2599111914615033,0.2599111914615033,-0.34491380071017913,140.70329795647626,362.02590208112997)" opacity="0.66"></path><path d="M436 226H486C514 226 536 248 536 276H486C458 276 436 254 436 226Z " transform="matrix(-0.22087466495691235,0.2132961845881636,-0.2132961845881636,-0.22087466495691235,646.8824295006884,202.7775951943375)" opacity="0.47"></path><path d="M3 30H53C81 30 103 52 103 80H53C25 80 3 58 3 30Z " transform="matrix(-0.11167674483406015,0.2508300756872169,-0.2508300756872169,-0.11167674483406015,72.71452163900211,47.84822695445081)" opacity="0.42"></path><path d="M706 720H756C784 720 806 742 806 770H756C728 770 706 748 706 720Z " transform="matrix(-0.3634889821535519,0.03820423149674829,-0.03820423149674829,-0.3634889821535519,1059.2598229731627,986.9168926928544)" opacity="0.56"></path><path d="M387 327H437C465 327 487 349 487 377H437C409 377 387 355 387 327Z " transform="matrix(-0.12140983427955124,0.24892704962886955,-0.24892704962886955,-0.12140983427955124,577.6784190495259,285.95514097858603)" opacity="0.42"></path><path d="M-5 155H45C73 155 95 177 95 205H45C17 205 -5 183 -5 155Z " transform="matrix(-0.021429883470128766,0.24494468890565235,-0.24494468890565235,-0.021429883470128766,90.05438875917322,172.83486802386884)" opacity="0.38"></path><path d="M92 447H142C170 447 192 469 192 497H142C114 497 92 475 92 447Z " transform="matrix(-0.3786484027484568,-0.15298388508096938,0.15298388508096938,-0.3786484027484568,123.5596794320633,672.4457577787692)" opacity="0.63"></path><path d="M422 526H472C500 526 522 548 522 576H472C444 576 422 554 422 526Z " transform="matrix(-0.1773567634856709,0.2353603745630153,-0.2353603745630153,-0.1773567634856709,685.395958749458,537.6334798868614)" opacity="0.45"></path><path d="M423 723H473C501 723 523 745 523 773H473C445 773 423 751 423 723Z " transform="matrix(-0.1773567634856709,0.2353603745630153,-0.2353603745630153,-0.1773567634856709,732.9393093018577,769.3374019189756)" opacity="0.45"></path><path d="M361 26H411C439 26 461 48 461 76H411C383 76 361 54 361 26Z " transform="matrix(0.06377482369566136,-0.5194042575604682,0.5194042575604682,0.06377482369566136,358.2989303254993,261.2226338488737)" opacity="0.80"></path><path d="M268 625H318C346 625 368 647 368 675H318C290 675 268 653 268 625Z " transform="matrix(-0.3331995171377614,0.10186931543622449,-0.10186931543622449,-0.3331995171377614,490.17250148335404,834.1852438308255)" opacity="0.53"></path><path d="M177 399H227C255 399 277 421 277 449H227C199 449 177 427 177 399Z " transform="matrix(-0.23953648878504966,-0.39865566355924276,0.39865566355924276,-0.23953648878504966,112.34478160508733,616.0583068728091)" opacity="0.71"></path><path d="M78 109H128C156 109 178 131 178 159H128C100 159 78 137 78 109Z " transform="matrix(-0.2263679452244364,0.21109152393977085,-0.21109152393977085,-0.2263679452244364,185.26136119665716,137.3135895957838)" opacity="0.47"></path><path d="M497 306H547C575 306 597 328 597 356H547C519 356 497 334 497 306Z " transform="matrix(-0.3236947519980494,0.11781525471547039,-0.11781525471547039,-0.3236947519980494,763.0578786537538,373.6980185819921)" opacity="0.53"></path><path d="M454 419H504C532 419 554 441 554 469H504C476 469 454 447 454 419Z " transform="matrix(-0.2590502338183295,0.188211011758749,-0.188211011758749,-0.2590502338183295,718.1270070653225,464.1599538889288)" opacity="0.49"></path><path d="M696 253H746C774 253 796 275 796 303H746C718 303 696 281 696 253Z " transform="matrix(-0.3630804800451696,0.038161296195042355,-0.038161296195042355,-0.3630804800451696,1027.4668784559183,350.4680464910556)" opacity="0.56"></path><path d="M0 268H50C78 268 100 290 100 318H50C22 318 0 296 0 268Z " transform="matrix(-0.1015113410295896,0.25124938565499544,-0.25124938565499544,-0.1015113410295896,128.69163704839315,310.18035363892)" opacity="0.41"></path></g><g fill="none" stroke-width="3" stroke="hsl(341, 100%, 85%)"><path d="M473 28H523C551 28 573 50 573 78H523C495 78 473 56 473 28Z " transform="matrix(-0.34735114288819935,-0.25236537745954357,0.25236537745954357,-0.34735114288819935,691.2892827251725,203.39670298441587)" opacity="0.66"></path><path d="M-7 606H43C71 606 93 628 93 656H43C15 656 -7 634 -7 606Z " transform="matrix(-0.1015113410295896,0.25124938565499544,-0.25124938565499544,-0.1015113410295896,205.90335001257446,684.2499326065063)" opacity="0.41"></path><path d="M697 148H747C775 148 797 170 797 198H747C719 198 697 176 697 148Z " transform="matrix(-0.2810504111472239,0.16887212401987137,-0.16887212401987137,-0.2810504111472239,986.1595345824139,95.47424448562582)" opacity="0.50"></path><path d="M697 33H747C775 33 797 55 797 83H747C719 83 697 61 697 33Z " transform="matrix(0.09149372302256506,0.17207466630160506,-0.17207466630160506,0.09149372302256506,688.634519547637,-75.84641166260772)" opacity="0.30"></path><path d="M-3 495H47C75 495 97 517 97 545H47C19 545 -3 523 -3 495Z " transform="matrix(-0.1015113410295896,0.25124938565499544,-0.25124938565499544,-0.1015113410295896,182.42071356898828,560.9771762096018)" opacity="0.41"></path><path d="M170 629H220C248 629 270 651 270 679H220C192 679 170 657 170 629Z " transform="matrix(-0.23953648878504966,-0.39865566355924276,0.39865566355924276,-0.23953648878504966,11.977223564966152,898.3611096484559)" opacity="0.71"></path><path d="M625 436H675C703 436 725 458 725 486H675C647 486 625 464 625 436Z " transform="matrix(-0.36310168065781906,0.03816352446922204,-0.03816352446922204,-0.36310168065781906,937.6870192243392,602.6294957665297)" opacity="0.56"></path><path d="M280 341H330C358 341 380 363 380 391H330C302 391 280 369 280 341Z " transform="matrix(-0.3331995171377614,0.10186931543622449,-0.10186931543622449,-0.3331995171377614,477.24001010511944,454.3341491784666)" opacity="0.53"></path><path d="M623 540H673C701 540 723 562 723 590H673C645 590 623 568 623 540Z " transform="matrix(-0.36310168065781906,0.03816352446922204,-0.03816352446922204,-0.36310168065781906,938.9298224078226,744.4683976038814)" opacity="0.56"></path><path d="M261 447H311C339 447 361 469 361 497H311C283 497 261 475 261 447Z " transform="matrix(-0.37227445399061826,0.013000110395472523,-0.013000110395472523,-0.37227445399061826,432.91340729774527,643.6705079505798)" opacity="0.57"></path><path d="M598 115H648C676 115 698 137 698 165H648C620 165 598 143 598 115Z " transform="matrix(-0.11160772061626882,0.25067504475576763,-0.25067504475576763,-0.11160772061626882,755.4163092251497,-6.81234811545977)" opacity="0.42"></path><path d="M610 315H660C688 315 710 337 710 365H660C632 365 610 343 610 315Z " transform="matrix(-0.3635197774357616,0.03820746821133473,-0.03820746821133473,-0.3635197774357616,912.9135922994564,438.379795308678)" opacity="0.56"></path><path d="M386 132H436C464 132 486 154 486 182H436C408 182 386 160 386 132Z " transform="matrix(-0.28898319426897623,0.16018600030102753,-0.16018600030102753,-0.28898319426897623,587.145874748535,132.52926536898127)" opacity="0.51"></path><path d="M123 18H173C201 18 223 40 223 68H173C145 68 123 46 123 18Z " transform="matrix(-0.3560853616839824,0.05639838071807768,-0.05639838071807768,-0.3560853616839824,237.0278979422063,48.5547506881838)" opacity="0.55"></path><path d="M220 725H270C298 725 320 747 320 775H270C242 775 220 753 220 725Z " transform="matrix(-0.3638826337551241,-0.21008773655195095,0.21008773655195095,-0.3638826337551241,210.6825086999203,1079.63566418537)" opacity="0.64"></path><path d="M482 618H532C560 618 582 640 582 668H532C504 668 482 646 482 618Z " transform="matrix(-0.29671839998317345,0.15118557612469422,-0.15118557612469422,-0.29671839998317345,787.0665142392266,753.3592046908433)" opacity="0.51"></path><path d="M492 132H542C570 132 592 154 592 182H542C514 182 492 160 492 132Z " transform="matrix(-0.3088030215878421,0.13748796332085855,-0.13748796332085855,-0.3088030215878421,730.9568479419852,130.9635982693859)" opacity="0.52"></path><path d="M318 235H368C396 235 418 257 418 285H368C340 285 318 263 318 235Z " transform="matrix(-0.16717271961944716,0.238747386306172,-0.238747386306172,-0.16717271961944716,491.5938812595613,215.60586894038497)" opacity="0.45"></path><path d="M585 628H635C663 628 685 650 685 678H635C607 678 585 656 585 628Z " transform="matrix(-0.36407890699912066,0.038266235096506014,-0.038266235096506014,-0.36407890699912066,891.1779574624601,866.4444669841444)" opacity="0.56"></path><path d="M-2 383H48C76 383 98 405 98 433H48C20 433 -2 411 -2 383Z " transform="matrix(-0.1015113410295896,0.25124938565499544,-0.25124938565499544,-0.1015113410295896,155.38229371665844,437.3566566286328)" opacity="0.41"></path><path d="M322 724H372C400 724 422 746 422 774H372C344 774 322 752 322 724Z " transform="matrix(-0.16717271961944716,0.238747386306172,-0.238747386306172,-0.16717271961944716,613.0100440417572,785.3983392890699)" opacity="0.45"></path><path d="M709 492H759C787 492 809 514 809 542H759C731 542 709 520 709 492Z " transform="matrix(-0.3634889821535519,0.03820423149674829,-0.03820423149674829,-0.3634889821535519,1054.6397251383646,675.9267920673544)" opacity="0.56"></path><path d="M704 369H754C782 369 804 391 804 419H754C726 419 704 397 704 369Z " transform="matrix(-0.3634889821535519,0.03820423149674829,-0.03820423149674829,-0.3634889821535519,1043.123159753497,508.40866841995125)" opacity="0.56"></path><path d="M287 120H337C365 120 387 142 387 170H337C309 170 287 148 287 120Z " transform="matrix(-0.38043101183811007,-0.03328340078953113,0.03328340078953113,-0.38043101183811007,460.37915787496104,211.37900278259792)" opacity="0.59"></path></g></svg>